<svg width="96" height="96" viewBox="0 0 480 480" fill="none" xmlns="http://www.w3.org/2000/svg">
<path d="M148 92.5C145.333 91.3333 142.75 90.75 140.25 90.75C137.75 90.75 135.25 92.3333 132.75 95.5C130.25 98.6667 128.583 103.25 127.75 109.25L115.25 196.75C136.25 187.583 149.667 180.75 155.5 176.25L165 192.75C160 196.583 154 200 147 203C140 206 133.25 208.833 126.75 211.5C120.25 214 115.417 215.917 112.25 217.25L104 275.75C101.833 291.75 96.0833 303.5 86.75 311C77.5833 318.667 67.4167 322.5 56.25 322.5C45.25 322.5 36.5 318.417 30 310.25C23.5 302.25 20.25 293.25 20.25 283.25C20.25 257.083 39.4167 233.833 77.75 213.5L80.25 193.25C83.4167 164.583 86.6667 139.667 90 118.5C80.5 122.333 70.5 124.25 60 124.25C49.6667 124.25 41.25 121.417 34.75 115.75C28.4167 110.083 25.25 102.667 25.25 93.5C25.25 84.3333 28.5 77.1667 35 72C41.6667 66.6667 50 64 60 64C66.1667 64 75 65.9167 86.5 69.75C98.1667 73.5833 107.167 75.5 113.5 75.5C124.833 75.5 134.333 72.5833 142 66.75C146.167 72.5833 148.25 79.5 148.25 87.5C148.25 89.1667 148.167 90.8333 148 92.5ZM50 100.25C50 102.75 51.3333 104.917 54 106.75C56.8333 108.583 61 109.5 66.5 109.5C72.1667 109.5 79.5 107 88.5 102C82 100.5 75.3333 98.8333 68.5 97C61.6667 95 57.5833 94 56.25 94C52.0833 94 50 96.0833 50 100.25ZM75 235.25C51.1667 249.583 39.25 264.75 39.25 280.75C39.25 285.25 40.4167 289.083 42.75 292.25C45.4167 295.917 48.75 297.75 52.75 297.75C56.9167 297.75 60.5 296.5 63.5 294C66.5 291.5 68.3333 287.5 69 282L75 235.25Z" fill="#6779FF"/>
<path d="M232.75 327.752C234.583 328.418 236.583 328.752 238.75 328.752C241.083 328.752 243.25 328.502 245.25 328.002C247.417 327.502 249.333 326.335 251 324.502C252.833 322.502 254.25 320.918 255.25 319.752C256.25 318.585 257.5 316.002 259 312.002C260.833 307.335 263.083 300.752 265.75 292.252C272.75 298.752 276.917 303.668 278.25 307.002C270.25 336.335 256.167 351.002 236 351.002C226.5 351.002 214.417 344.835 199.75 332.502C192.083 344.835 180.167 351.002 164 351.002C156.833 351.002 150.333 348.585 144.5 343.752C138.833 338.918 136 332.002 136 323.002C136 314.002 139 306.668 145 301.002C151 295.168 158.75 292.252 168.25 292.252C170.083 292.252 172.667 292.418 176 292.752L179.5 261.002C172.167 263.335 160.833 266.335 145.5 270.002V251.252C158 248.418 170 245.252 181.5 241.752L186.5 201.002C190 173.168 204.167 159.252 229 159.252C238.833 159.252 246.667 162.002 252.5 167.502C258.5 172.835 261.5 180.418 261.5 190.252C261.5 213.918 246.25 233.002 215.75 247.502L208.25 306.502L208 309.002C220.333 320.002 228.583 326.252 232.75 327.752ZM242.75 192.252C242.75 185.252 239.833 181.752 234 181.752C227 181.752 222.583 190.002 220.75 206.502L218.25 226.252C234.583 216.585 242.75 205.252 242.75 192.252ZM155 321.252C155 326.252 157.833 328.752 163.5 328.752C169 328.752 172.417 323.835 173.75 314.002C170.583 312.668 167.583 312.002 164.75 312.002C162.083 312.002 159.75 312.918 157.75 314.752C155.917 316.585 155 318.752 155 321.252Z" fill="#F54D72"/>
<path d="M411 294.325C412.833 281.492 416.5 272.242 422 266.575C427.5 260.909 434.75 258.075 443.75 258.075C452.75 258.075 459.333 260.742 463.5 266.075C467.833 271.242 470 276.492 470 281.825C470 283.492 469.833 285.159 469.5 286.825C465.833 305.325 453.583 319.742 432.75 330.075L415.25 448.325H373.25L343.5 316.575L329.75 414.075C327.917 426.409 324.083 435.492 318.25 441.325C312.583 447.159 305.917 450.075 298.25 450.075C290.583 450.075 284.167 447.825 279 443.325C274 438.825 270.917 432.409 269.75 424.075C269.583 422.742 269.5 421.409 269.5 420.075C269.5 403.575 281.917 389.409 306.75 377.575L317.5 297.075C321.667 295.242 325.25 294.325 328.25 294.325C331.417 294.325 334.083 294.575 336.25 295.075C332.417 289.075 326.333 286.075 318 286.075C309.667 286.075 302.333 290.409 296 299.075L291.25 277.575C294.417 273.242 299.917 268.909 307.75 264.575C315.75 260.075 324.5 257.825 334 257.825C343.667 257.825 351.833 260.742 358.5 266.575C365.167 272.242 370 281.825 373 295.325L396.5 394.325L411 294.325ZM436 308.575C446.333 301.242 451.5 294.409 451.5 288.075C451.5 286.909 451.083 285.575 450.25 284.075C449.417 282.575 448.167 281.825 446.5 281.825C443.333 281.825 441.167 283.575 440 287.075C438.333 291.909 437 299.075 436 308.575ZM304.25 398.325C292.75 404.825 287 411.159 287 417.325C287 423.492 289.25 426.575 293.75 426.575C296.75 426.575 298.917 424.659 300.25 420.825C301.583 416.825 302.833 409.742 304 399.575L304.25 398.325Z" fill="#00A9FD"/>
</svg>
